<svg aria-hidden="true" style="position: absolute; width: 0; height: 0; overflow: hidden;" version="1.1" xmlns="http://www.w3.org/2000/svg" xmlns:xlink="http://www.w3.org/1999/xlink">
<defs>
<symbol id="icon-th-menu" viewBox="0 0 64 64">
<title>th-menu</title>
<path d="M50.667 45.333h-37.333c-2.941 0-5.333 2.392-5.333 5.333s2.392 5.333 5.333 5.333h37.333c2.941 0 5.333-2.392 5.333-5.333s-2.392-5.333-5.333-5.333z"></path>
<path d="M50.667 26.667h-37.333c-2.941 0-5.333 2.392-5.333 5.333s2.392 5.333 5.333 5.333h37.333c2.941 0 5.333-2.392 5.333-5.333s-2.392-5.333-5.333-5.333z"></path>
<path d="M50.667 8h-37.333c-2.941 0-5.333 2.392-5.333 5.333s2.392 5.333 5.333 5.333h37.333c2.941 0 5.333-2.392 5.333-5.333s-2.392-5.333-5.333-5.333z"></path>
</symbol>
<symbol id="icon-envelope" viewBox="0 0 64 64">
<title>envelope</title>
<path d="M58 8h-52c-3.314 0-6 2.686-6 6v36c0 3.312 2.686 6 6 6h52c3.314 0 6-2.688 6-6v-36c0-3.314-2.686-6-6-6zM5.482 51.98l-1.462-1.464 16.498-16.496 1.462 1.464-16.498 16.496zM58.518 51.98l-16.498-16.496 1.462-1.464 16.498 16.496-1.462 1.464zM34 38.65v1.35h-4v-1.35l-25.994-24.1 2.544-2.544 25.45 23.596 25.45-23.596 2.544 2.544-25.994 24.1z"></path>
</symbol>
<symbol id="icon-user" viewBox="0 0 64 64">
<title>user</title>
<path d="M0 64v-6c0-8.968 11.298-12.358 26.198-13.724-3.272-2.028-5.84-7.728-7.178-12.28-0.006 0-0.012 0.004-0.020 0.004-0.136 0-3-3.582-3-8 0-3.876-0.276-7.108 2.014-7.84-0.002-0.054-0.014-0.106-0.014-0.16 0-4.914 2.542-9.22 6.374-11.718 0.99-2.47 4.008-4.282 7.626-4.282s6.636 1.812 7.626 4.282c3.832 2.498 6.374 6.804 6.374 11.718 0 0.054-0.012 0.106-0.014 0.16 2.29 0.732 2.014 3.964 2.014 7.84 0 4.418-3.176 8-3 8-0.008 0-0.014-0.004-0.020-0.004-1.338 4.55-3.906 10.252-7.178 12.28 14.9 1.366 26.198 4.63 26.198 13.724v6h-64z"></path>
</symbol>
<symbol id="icon-home" viewBox="0 0 64 64">
<title>home</title>
<path d="M57.662 38.038l-5.68-5.682v29.644c0 1.106-0.892 2-1.998 2h-7.992c-1.106 0-1.998-0.894-1.998-2v-23.988c0-1.106-0.894-2-2-2h-11.99c-1.104 0-1.998 0.894-1.998 2v23.988c0 1.106-0.896 2-1.998 2h-7.992c-1.104 0-2-0.894-2-2v-29.644l-5.68 5.682-6.336-6.34 31.684-31.698 0.316 0.316 0.316-0.316 15.67 15.678v-11.652h7.994v19.65l8.020 8.022-6.338 6.34z"></path>
</symbol>
<symbol id="icon-code" viewBox="0 0 64 64">
<title>code</title>
<path d="M0 38.512l20.084 12.914v-9.322l-11.958-7.384 11.958-7.384v-9.386l-20.084 12.98v7.582zM24.332 56h6.912l10.128-48h-6.958l-10.082 48zM43.918 17.95v9.386l11.954 7.384-11.954 7.382v9.322l20.082-12.912v-7.582l-20.082-12.98z"></path>
</symbol>
<symbol id="icon-instagram" viewBox="0 0 64 64">
<title>instagram</title>
<path d="M32 5.763c8.55 0 9.563 0.037 12.925 0.188 3.125 0.138 4.813 0.662 5.938 1.1 1.487 0.575 2.563 1.275 3.675 2.387 1.125 1.125 1.813 2.188 2.4 3.675 0.438 1.125 0.962 2.825 1.1 5.938 0.15 3.375 0.188 4.387 0.188 12.925s-0.038 9.563-0.188 12.925c-0.138 3.125-0.663 4.813-1.1 5.938-0.575 1.487-1.275 2.563-2.388 3.675-1.125 1.125-2.188 1.813-3.675 2.4-1.125 0.438-2.825 0.962-5.938 1.1-3.375 0.15-4.388 0.188-12.925 0.188s-9.563-0.038-12.925-0.188c-3.125-0.138-4.813-0.663-5.938-1.1-1.488-0.575-2.563-1.275-3.675-2.388-1.125-1.125-1.813-2.188-2.4-3.675-0.438-1.125-0.963-2.825-1.1-5.938-0.15-3.375-0.188-4.388-0.188-12.925s0.037-9.563 0.188-12.925c0.138-3.125 0.662-4.813 1.1-5.938 0.575-1.488 1.275-2.563 2.388-3.675 1.125-1.125 2.188-1.813 3.675-2.4 1.125-0.438 2.825-0.963 5.938-1.1 3.363-0.15 4.375-0.188 12.925-0.188zM32 0c-8.688 0-9.775 0.037-13.188 0.188-3.4 0.15-5.738 0.7-7.762 1.488-2.113 0.825-3.9 1.913-5.675 3.7-1.788 1.775-2.875 3.563-3.7 5.662-0.787 2.037-1.337 4.362-1.488 7.763-0.15 3.425-0.188 4.512-0.188 13.2s0.037 9.775 0.188 13.188c0.15 3.4 0.7 5.737 1.488 7.763 0.825 2.112 1.913 3.9 3.7 5.675 1.775 1.775 3.562 2.875 5.663 3.688 2.037 0.788 4.363 1.337 7.762 1.487 3.413 0.15 4.5 0.188 13.188 0.188s9.775-0.038 13.187-0.188c3.4-0.15 5.737-0.7 7.763-1.487 2.1-0.813 3.888-1.913 5.663-3.688s2.875-3.563 3.688-5.663c0.788-2.038 1.337-4.362 1.487-7.763 0.15-3.413 0.188-4.5 0.188-13.188s-0.038-9.775-0.188-13.188c-0.15-3.4-0.7-5.738-1.487-7.762-0.788-2.125-1.875-3.912-3.663-5.688-1.775-1.775-3.563-2.875-5.663-3.688-2.038-0.787-4.362-1.337-7.763-1.488-3.425-0.163-4.513-0.2-13.2-0.2v0z"></path>
<path d="M32 15.563c-9.075 0-16.438 7.363-16.438 16.438s7.363 16.438 16.438 16.438 16.438-7.362 16.438-16.438c0-9.075-7.362-16.438-16.438-16.438zM32 42.663c-5.887 0-10.663-4.775-10.663-10.663s4.775-10.663 10.663-10.663c5.888 0 10.663 4.775 10.663 10.663s-4.775 10.663-10.663 10.663z"></path>
<path d="M52.925 14.912c0 2.119-1.718 3.838-3.837 3.838s-3.837-1.718-3.837-3.838c0-2.119 1.718-3.838 3.837-3.838s3.837 1.718 3.837 3.838z"></path>
</symbol>
<symbol id="icon-github" viewBox="0 0 64 64">
<title>github</title>
<path d="M32.001 0.79c-17.671 0-32.001 14.326-32.001 32 0 14.138 9.169 26.133 21.884 30.365 1.599 0.296 2.187-0.694 2.187-1.539 0-0.763-0.030-3.284-0.044-5.958-8.903 1.936-10.781-3.776-10.781-3.776-1.455-3.699-3.553-4.682-3.553-4.682-2.903-1.986 0.219-1.945 0.219-1.945 3.213 0.226 4.905 3.298 4.905 3.298 2.855 4.892 7.486 3.477 9.313 2.66 0.287-2.068 1.116-3.48 2.032-4.279-7.108-0.809-14.58-3.553-14.58-15.815 0-3.494 1.25-6.348 3.297-8.589-0.332-0.806-1.428-4.061 0.309-8.469 0 0 2.688-0.86 8.802 3.281 2.552-0.709 5.29-1.065 8.010-1.077 2.719 0.012 5.459 0.368 8.016 1.077 6.108-4.14 8.791-3.281 8.791-3.281 1.742 4.408 0.647 7.663 0.315 8.469 2.051 2.241 3.293 5.096 3.293 8.589 0 12.291-7.486 14.997-14.612 15.789 1.148 0.993 2.17 2.94 2.17 5.926 0 4.282-0.037 7.728-0.037 8.782 0 0.852 0.576 1.85 2.198 1.535 12.708-4.236 21.865-16.227 21.865-30.361 0-17.674-14.327-32-32-32z"></path>
</symbol>
<symbol id="icon-facebook" viewBox="0 0 64 64">
<title>facebook</title>
<path d="M54.4 3.2h-44.8c-3.52 0-6.4 2.88-6.4 6.4v44.8c0 3.523 2.88 6.4 6.4 6.4h22.4v-22.4h-6.4v-7.92h6.4v-6.56c0-6.925 3.878-11.789 12.051-11.789l5.77 0.006v8.336h-3.83c-3.181 0-4.39 2.387-4.39 4.602v5.408h8.218l-1.818 7.917h-6.4v22.4h12.8c3.52 0 6.4-2.877 6.4-6.4v-44.8c0-3.52-2.88-6.4-6.4-6.4z"></path>
</symbol>
</defs>
</svg>
